<?xml version="1.0" encoding="UTF-8" ?>
<!DOCTYPE svg PUBLIC "-//W3C//DTD SVG 1.1//EN" "http://www.w3.org/Graphics/SVG/1.1/DTD/svg11.dtd">
<svg width="923pt" height="918pt" viewBox="0 0 923 918" version="1.1" xmlns="http://www.w3.org/2000/svg">
<g id="#ffffffff">
<path fill="#ffffff" opacity="1.00" d=" M 103.53 24.88 C 107.64 24.23 111.79 23.71 115.96 23.63 C 345.97 23.73 575.98 23.64 806.00 23.70 C 825.58 23.09 845.56 28.91 861.22 40.82 C 882.65 56.53 895.53 82.61 896.36 109.03 C 896.20 284.34 896.45 459.66 896.24 634.98 C 896.27 689.30 896.23 743.63 896.26 797.96 C 896.66 817.88 890.37 838.13 877.76 853.67 C 866.93 867.68 851.93 878.74 834.84 883.72 C 825.53 886.63 815.78 888.10 806.03 887.90 C 774.36 887.95 742.70 887.82 711.04 887.88 C 682.35 888.37 653.66 887.98 624.97 888.13 C 568.00 887.88 511.03 888.17 454.05 888.12 C 427.36 887.64 400.68 888.04 373.99 888.11 C 290.03 887.70 206.03 887.93 122.06 887.87 C 94.79 888.73 67.27 876.18 50.34 854.74 C 38.61 840.58 31.89 822.38 31.33 804.04 C 31.16 587.03 31.25 370.03 31.18 153.02 C 31.28 137.10 30.96 121.17 31.32 105.25 C 32.90 85.02 41.07 65.03 55.39 50.47 C 68.05 36.93 85.37 28.18 103.53 24.88 M 379.63 178.39 C 379.86 242.09 379.72 305.78 379.71 369.48 C 315.31 369.54 250.90 369.37 186.49 369.65 C 186.78 425.33 186.73 481.03 186.67 536.71 C 193.77 536.56 200.86 536.54 207.95 536.56 C 265.18 536.71 322.41 536.43 379.63 536.65 C 379.86 601.84 379.73 667.02 379.78 732.21 C 383.18 732.05 386.59 731.79 390.00 731.83 C 442.74 731.71 495.47 731.76 548.21 731.81 C 548.07 681.55 548.18 631.29 548.13 581.03 C 547.97 566.22 548.49 551.40 547.82 536.61 C 612.17 536.45 676.52 536.48 740.87 536.52 C 740.54 481.03 741.03 425.53 740.56 370.04 C 736.43 374.11 732.62 378.49 728.89 382.91 C 716.77 396.58 704.68 410.27 692.47 423.85 C 692.51 445.20 692.46 466.55 692.40 487.90 C 652.94 487.85 613.48 487.81 574.03 487.99 C 549.21 487.66 524.39 488.55 499.58 487.87 C 499.46 553.02 499.58 618.17 499.56 683.31 C 475.80 683.14 452.04 683.37 428.28 683.33 C 428.22 618.32 428.08 553.29 428.27 488.28 C 425.22 487.62 422.09 487.91 419.00 487.88 C 357.85 487.99 296.68 488.36 235.51 487.88 C 235.54 464.64 235.68 441.39 235.40 418.15 C 299.70 417.83 364.00 417.79 428.30 417.75 C 428.20 354.11 428.21 290.47 428.21 226.82 C 451.98 226.88 475.70 227.03 499.46 226.81 C 499.53 290.50 499.62 354.18 499.51 417.87 C 550.36 417.87 601.22 417.79 652.07 417.85 C 666.94 402.22 680.84 385.68 695.23 369.61 C 646.20 369.25 597.15 369.57 548.12 369.30 C 548.13 305.66 548.23 242.01 548.25 178.37 C 492.05 178.52 435.84 178.35 379.63 178.39 Z" />
</g>
<g id="#45494cff">
</g>
<g id="#151514ff">
<path fill="#151514" opacity="1.00" d=" M 379.63 178.39 C 435.84 178.35 492.05 178.52 548.25 178.37 C 548.23 242.01 548.13 305.66 548.12 369.30 C 597.15 369.57 646.20 369.25 695.23 369.61 C 680.84 385.68 666.94 402.22 652.07 417.85 C 601.22 417.79 550.36 417.87 499.51 417.87 C 499.62 354.18 499.53 290.50 499.46 226.81 C 475.70 227.03 451.98 226.88 428.21 226.82 C 428.21 290.47 428.20 354.11 428.30 417.75 C 364.00 417.79 299.70 417.83 235.40 418.15 C 235.68 441.39 235.54 464.64 235.51 487.88 C 296.68 488.36 357.85 487.99 419.00 487.88 C 422.09 487.91 425.22 487.62 428.27 488.28 C 428.08 553.29 428.22 618.32 428.28 683.33 C 452.04 683.37 475.80 683.14 499.56 683.31 C 499.58 618.17 499.46 553.02 499.58 487.87 C 524.39 488.55 549.21 487.66 574.03 487.99 C 613.48 487.81 652.94 487.85 692.40 487.90 C 692.46 466.55 692.51 445.20 692.47 423.85 C 704.68 410.27 716.77 396.58 728.89 382.91 C 732.62 378.49 736.43 374.11 740.56 370.04 C 741.03 425.53 740.54 481.03 740.87 536.52 C 676.52 536.48 612.17 536.45 547.82 536.61 C 548.49 551.40 547.97 566.22 548.13 581.03 C 548.18 631.29 548.07 681.55 548.21 731.81 C 495.47 731.76 442.74 731.71 390.00 731.83 C 386.59 731.79 383.18 732.05 379.78 732.21 C 379.73 667.02 379.86 601.84 379.63 536.65 C 322.41 536.43 265.18 536.71 207.95 536.56 C 200.86 536.54 193.77 536.56 186.67 536.71 C 186.73 481.03 186.78 425.33 186.49 369.65 C 250.90 369.37 315.31 369.54 379.71 369.48 C 379.72 305.78 379.86 242.09 379.63 178.39 Z" />
</g>
</svg>
